<mxfile host="app.diagrams.net" agent="Mozilla/5.0 (Macintosh; Intel Mac OS X 10_15_7) AppleWebKit/605.1.15 (KHTML, like Gecko) Version/18.3.1 Safari/605.1.15" version="26.1.1">
  <diagram id="vWoHTal2PunRuxhZV0vU" name="3a">
    <mxGraphModel dx="979" dy="884" grid="1" gridSize="10" guides="1" tooltips="1" connect="1" arrows="1" fold="1" page="1" pageScale="1" pageWidth="1169" pageHeight="827" math="0" shadow="0">
      <root>
        <mxCell id="0" />
        <mxCell id="1" parent="0" />
        <mxCell id="-2Du17dGPulLsibZjKrI-1" value="&lt;b&gt;Gyártók&lt;/b&gt;" style="rounded=0;whiteSpace=wrap;html=1;fillColor=#d5e8d4;strokeColor=#82b366;" parent="1" vertex="1">
          <mxGeometry x="75" y="395" width="120" height="50" as="geometry" />
        </mxCell>
        <mxCell id="-2Du17dGPulLsibZjKrI-2" value="" style="edgeStyle=orthogonalEdgeStyle;rounded=0;orthogonalLoop=1;jettySize=auto;html=1;" parent="1" source="-2Du17dGPulLsibZjKrI-3" target="-2Du17dGPulLsibZjKrI-1" edge="1">
          <mxGeometry relative="1" as="geometry" />
        </mxCell>
        <mxCell id="-2Du17dGPulLsibZjKrI-3" value="&lt;b&gt;GY-T&lt;/b&gt;" style="rhombus;whiteSpace=wrap;html=1;fillColor=#f5f5f5;fontColor=#333333;strokeColor=#666666;" parent="1" vertex="1">
          <mxGeometry x="300" y="380" width="80" height="80" as="geometry" />
        </mxCell>
        <mxCell id="-2Du17dGPulLsibZjKrI-5" value="&lt;b&gt;Termékek&lt;/b&gt;" style="rounded=0;whiteSpace=wrap;html=1;fillColor=#fff2cc;strokeColor=#d6b656;" parent="1" vertex="1">
          <mxGeometry x="485" y="395" width="120" height="50" as="geometry" />
        </mxCell>
        <mxCell id="-2Du17dGPulLsibZjKrI-6" value="" style="endArrow=classic;html=1;rounded=0;exitX=1;exitY=0.5;exitDx=0;exitDy=0;" parent="1" edge="1">
          <mxGeometry width="50" height="50" relative="1" as="geometry">
            <mxPoint x="400" y="419.89" as="sourcePoint" />
            <mxPoint x="480" y="419.89" as="targetPoint" />
          </mxGeometry>
        </mxCell>
        <mxCell id="-2Du17dGPulLsibZjKrI-7" value="" style="endArrow=classic;html=1;rounded=0;entryX=0;entryY=0.5;entryDx=0;entryDy=0;" parent="1" source="-2Du17dGPulLsibZjKrI-3" target="-2Du17dGPulLsibZjKrI-5" edge="1">
          <mxGeometry width="50" height="50" relative="1" as="geometry">
            <mxPoint x="385" y="520" as="sourcePoint" />
            <mxPoint x="435" y="470" as="targetPoint" />
          </mxGeometry>
        </mxCell>
        <mxCell id="-2Du17dGPulLsibZjKrI-8" value="&lt;u&gt;Adószám&lt;/u&gt;" style="ellipse;whiteSpace=wrap;html=1;" parent="1" vertex="1">
          <mxGeometry x="10" y="470" width="70" height="40" as="geometry" />
        </mxCell>
        <mxCell id="-2Du17dGPulLsibZjKrI-9" value="Név" style="ellipse;whiteSpace=wrap;html=1;" parent="1" vertex="1">
          <mxGeometry x="100" y="470" width="70" height="40" as="geometry" />
        </mxCell>
        <mxCell id="-2Du17dGPulLsibZjKrI-10" value="Telephely" style="ellipse;whiteSpace=wrap;html=1;" parent="1" vertex="1">
          <mxGeometry x="190" y="470" width="70" height="40" as="geometry" />
        </mxCell>
        <mxCell id="-2Du17dGPulLsibZjKrI-11" value="" style="endArrow=none;html=1;rounded=0;entryX=0.5;entryY=1;entryDx=0;entryDy=0;exitX=0.5;exitY=0;exitDx=0;exitDy=0;" parent="1" source="-2Du17dGPulLsibZjKrI-8" target="-2Du17dGPulLsibZjKrI-1" edge="1">
          <mxGeometry width="50" height="50" relative="1" as="geometry">
            <mxPoint x="315" y="520" as="sourcePoint" />
            <mxPoint x="365" y="470" as="targetPoint" />
          </mxGeometry>
        </mxCell>
        <mxCell id="-2Du17dGPulLsibZjKrI-12" value="" style="endArrow=none;html=1;rounded=0;entryX=0.5;entryY=1;entryDx=0;entryDy=0;exitX=0.5;exitY=0;exitDx=0;exitDy=0;" parent="1" source="-2Du17dGPulLsibZjKrI-10" target="-2Du17dGPulLsibZjKrI-1" edge="1">
          <mxGeometry width="50" height="50" relative="1" as="geometry">
            <mxPoint x="315" y="520" as="sourcePoint" />
            <mxPoint x="365" y="470" as="targetPoint" />
          </mxGeometry>
        </mxCell>
        <mxCell id="-2Du17dGPulLsibZjKrI-13" value="" style="endArrow=none;html=1;rounded=0;entryX=0.5;entryY=1;entryDx=0;entryDy=0;" parent="1" source="-2Du17dGPulLsibZjKrI-9" target="-2Du17dGPulLsibZjKrI-1" edge="1">
          <mxGeometry width="50" height="50" relative="1" as="geometry">
            <mxPoint x="335" y="530" as="sourcePoint" />
            <mxPoint x="385" y="480" as="targetPoint" />
          </mxGeometry>
        </mxCell>
        <mxCell id="-2Du17dGPulLsibZjKrI-14" value="&lt;u&gt;Tkód&lt;/u&gt;" style="ellipse;whiteSpace=wrap;html=1;" parent="1" vertex="1">
          <mxGeometry x="415" y="470" width="70" height="40" as="geometry" />
        </mxCell>
        <mxCell id="-2Du17dGPulLsibZjKrI-15" value="ear" style="ellipse;whiteSpace=wrap;html=1;" parent="1" vertex="1">
          <mxGeometry x="605" y="470" width="70" height="40" as="geometry" />
        </mxCell>
        <mxCell id="-2Du17dGPulLsibZjKrI-16" value="Név" style="ellipse;whiteSpace=wrap;html=1;" parent="1" vertex="1">
          <mxGeometry x="510" y="470" width="70" height="40" as="geometry" />
        </mxCell>
        <mxCell id="-2Du17dGPulLsibZjKrI-17" value="" style="endArrow=none;html=1;rounded=0;entryX=0.5;entryY=1;entryDx=0;entryDy=0;exitX=0.5;exitY=0;exitDx=0;exitDy=0;" parent="1" source="-2Du17dGPulLsibZjKrI-15" target="-2Du17dGPulLsibZjKrI-5" edge="1">
          <mxGeometry width="50" height="50" relative="1" as="geometry">
            <mxPoint x="315" y="520" as="sourcePoint" />
            <mxPoint x="365" y="470" as="targetPoint" />
          </mxGeometry>
        </mxCell>
        <mxCell id="-2Du17dGPulLsibZjKrI-18" value="" style="endArrow=none;html=1;rounded=0;entryX=0.5;entryY=1;entryDx=0;entryDy=0;exitX=0.5;exitY=0;exitDx=0;exitDy=0;" parent="1" source="-2Du17dGPulLsibZjKrI-16" target="-2Du17dGPulLsibZjKrI-5" edge="1">
          <mxGeometry width="50" height="50" relative="1" as="geometry">
            <mxPoint x="315" y="520" as="sourcePoint" />
            <mxPoint x="365" y="470" as="targetPoint" />
          </mxGeometry>
        </mxCell>
        <mxCell id="-2Du17dGPulLsibZjKrI-19" value="" style="endArrow=none;html=1;rounded=0;entryX=0.5;entryY=1;entryDx=0;entryDy=0;exitX=0.5;exitY=0;exitDx=0;exitDy=0;" parent="1" source="-2Du17dGPulLsibZjKrI-14" target="-2Du17dGPulLsibZjKrI-5" edge="1">
          <mxGeometry width="50" height="50" relative="1" as="geometry">
            <mxPoint x="315" y="520" as="sourcePoint" />
            <mxPoint x="365" y="470" as="targetPoint" />
          </mxGeometry>
        </mxCell>
        <mxCell id="-2Du17dGPulLsibZjKrI-20" value="" style="endArrow=none;html=1;rounded=0;exitX=0.5;exitY=0;exitDx=0;exitDy=0;entryX=0.5;entryY=1;entryDx=0;entryDy=0;" parent="1" target="-2Du17dGPulLsibZjKrI-10" edge="1">
          <mxGeometry width="50" height="50" relative="1" as="geometry">
            <mxPoint x="300" y="530" as="sourcePoint" />
            <mxPoint x="365" y="460" as="targetPoint" />
          </mxGeometry>
        </mxCell>
        <mxCell id="-2Du17dGPulLsibZjKrI-21" value="" style="endArrow=none;html=1;rounded=0;exitX=0.5;exitY=0;exitDx=0;exitDy=0;entryX=0.5;entryY=1;entryDx=0;entryDy=0;" parent="1" target="-2Du17dGPulLsibZjKrI-10" edge="1">
          <mxGeometry width="50" height="50" relative="1" as="geometry">
            <mxPoint x="225" y="530" as="sourcePoint" />
            <mxPoint x="365" y="460" as="targetPoint" />
          </mxGeometry>
        </mxCell>
        <mxCell id="-2Du17dGPulLsibZjKrI-22" value="" style="endArrow=none;html=1;rounded=0;entryX=0.5;entryY=1;entryDx=0;entryDy=0;exitX=0.5;exitY=0;exitDx=0;exitDy=0;" parent="1" target="-2Du17dGPulLsibZjKrI-10" edge="1">
          <mxGeometry width="50" height="50" relative="1" as="geometry">
            <mxPoint x="150" y="530" as="sourcePoint" />
            <mxPoint x="365" y="460" as="targetPoint" />
          </mxGeometry>
        </mxCell>
        <mxCell id="-2Du17dGPulLsibZjKrI-23" value="Város" style="ellipse;whiteSpace=wrap;html=1;" parent="1" vertex="1">
          <mxGeometry x="100" y="530" width="70" height="40" as="geometry" />
        </mxCell>
        <mxCell id="-2Du17dGPulLsibZjKrI-24" value="Utca" style="ellipse;whiteSpace=wrap;html=1;" parent="1" vertex="1">
          <mxGeometry x="190" y="530" width="70" height="40" as="geometry" />
        </mxCell>
        <mxCell id="-2Du17dGPulLsibZjKrI-25" value="&lt;font style=&quot;font-size: 11px;&quot;&gt;Irányítószám&lt;/font&gt;" style="ellipse;whiteSpace=wrap;html=1;" parent="1" vertex="1">
          <mxGeometry x="280" y="530" width="70" height="40" as="geometry" />
        </mxCell>
        <mxCell id="-2Du17dGPulLsibZjKrI-26" value="&lt;b&gt;Alkatrész&lt;/b&gt;" style="rounded=0;whiteSpace=wrap;html=1;fillColor=#e1d5e7;strokeColor=#9673a6;" parent="1" vertex="1">
          <mxGeometry x="795" y="395" width="130" height="50" as="geometry" />
        </mxCell>
        <mxCell id="-2Du17dGPulLsibZjKrI-27" style="edgeStyle=orthogonalEdgeStyle;rounded=0;orthogonalLoop=1;jettySize=auto;html=1;" parent="1" edge="1">
          <mxGeometry relative="1" as="geometry">
            <mxPoint x="630" y="419.71000000000004" as="sourcePoint" />
            <mxPoint x="790" y="419.82000000000005" as="targetPoint" />
          </mxGeometry>
        </mxCell>
        <mxCell id="-2Du17dGPulLsibZjKrI-28" value="&lt;u&gt;Akód&lt;/u&gt;" style="ellipse;whiteSpace=wrap;html=1;" parent="1" vertex="1">
          <mxGeometry x="777.5" y="470" width="70" height="40" as="geometry" />
        </mxCell>
        <mxCell id="-2Du17dGPulLsibZjKrI-29" value="Név" style="ellipse;whiteSpace=wrap;html=1;" parent="1" vertex="1">
          <mxGeometry x="872.5" y="470" width="70" height="40" as="geometry" />
        </mxCell>
        <mxCell id="-2Du17dGPulLsibZjKrI-30" value="" style="endArrow=none;html=1;rounded=0;entryX=0.5;entryY=1;entryDx=0;entryDy=0;exitX=0.5;exitY=0;exitDx=0;exitDy=0;" parent="1" source="-2Du17dGPulLsibZjKrI-29" target="-2Du17dGPulLsibZjKrI-26" edge="1">
          <mxGeometry width="50" height="50" relative="1" as="geometry">
            <mxPoint x="510" y="530" as="sourcePoint" />
            <mxPoint x="560" y="480" as="targetPoint" />
          </mxGeometry>
        </mxCell>
        <mxCell id="-2Du17dGPulLsibZjKrI-31" value="" style="endArrow=none;html=1;rounded=0;entryX=0.5;entryY=1;entryDx=0;entryDy=0;exitX=0.5;exitY=0;exitDx=0;exitDy=0;" parent="1" source="-2Du17dGPulLsibZjKrI-28" target="-2Du17dGPulLsibZjKrI-26" edge="1">
          <mxGeometry width="50" height="50" relative="1" as="geometry">
            <mxPoint x="795" y="470" as="sourcePoint" />
            <mxPoint x="560" y="480" as="targetPoint" />
          </mxGeometry>
        </mxCell>
        <mxCell id="-2Du17dGPulLsibZjKrI-34" value="&lt;b&gt;Rendelés&lt;/b&gt;" style="rounded=0;whiteSpace=wrap;html=1;fillColor=#dae8fc;strokeColor=#6c8ebf;" parent="1" vertex="1">
          <mxGeometry x="485" y="220" width="120" height="50" as="geometry" />
        </mxCell>
        <mxCell id="-2Du17dGPulLsibZjKrI-38" value="" style="endArrow=classic;html=1;rounded=0;exitX=0.5;exitY=1;exitDx=0;exitDy=0;" parent="1" source="-2Du17dGPulLsibZjKrI-50" edge="1">
          <mxGeometry width="50" height="50" relative="1" as="geometry">
            <mxPoint x="545" y="280" as="sourcePoint" />
            <mxPoint x="545" y="390" as="targetPoint" />
          </mxGeometry>
        </mxCell>
        <mxCell id="-2Du17dGPulLsibZjKrI-43" value="" style="endArrow=classic;html=1;rounded=0;entryX=1;entryY=0.5;entryDx=0;entryDy=0;" parent="1" target="-2Du17dGPulLsibZjKrI-5" edge="1">
          <mxGeometry width="50" height="50" relative="1" as="geometry">
            <mxPoint x="760" y="420" as="sourcePoint" />
            <mxPoint x="650" y="370" as="targetPoint" />
            <Array as="points">
              <mxPoint x="740" y="420" />
            </Array>
          </mxGeometry>
        </mxCell>
        <mxCell id="-2Du17dGPulLsibZjKrI-44" style="edgeStyle=orthogonalEdgeStyle;rounded=0;orthogonalLoop=1;jettySize=auto;html=1;entryX=0;entryY=0.5;entryDx=0;entryDy=0;" parent="1" edge="1">
          <mxGeometry relative="1" as="geometry">
            <mxPoint x="605" y="419.89000000000004" as="sourcePoint" />
            <mxPoint x="790" y="419.89000000000004" as="targetPoint" />
          </mxGeometry>
        </mxCell>
        <mxCell id="-2Du17dGPulLsibZjKrI-45" value="" style="endArrow=classic;html=1;rounded=0;exitX=1;exitY=0.5;exitDx=0;exitDy=0;" parent="1" source="-2Du17dGPulLsibZjKrI-48" edge="1">
          <mxGeometry width="50" height="50" relative="1" as="geometry">
            <mxPoint x="620" y="419.93" as="sourcePoint" />
            <mxPoint x="795" y="419.93" as="targetPoint" />
          </mxGeometry>
        </mxCell>
        <mxCell id="-2Du17dGPulLsibZjKrI-48" value="&lt;b&gt;T-A&lt;/b&gt;" style="rhombus;whiteSpace=wrap;html=1;fillColor=#f5f5f5;fontColor=#333333;strokeColor=#666666;" parent="1" vertex="1">
          <mxGeometry x="660" y="380" width="80" height="80" as="geometry" />
        </mxCell>
        <mxCell id="-2Du17dGPulLsibZjKrI-53" value="&lt;u&gt;Rkód&lt;/u&gt;" style="ellipse;whiteSpace=wrap;html=1;" parent="1" vertex="1">
          <mxGeometry x="360" y="160" width="70" height="40" as="geometry" />
        </mxCell>
        <mxCell id="-2Du17dGPulLsibZjKrI-54" value="Darabszám" style="ellipse;whiteSpace=wrap;html=1;" parent="1" vertex="1">
          <mxGeometry x="560" y="160" width="70" height="40" as="geometry" />
        </mxCell>
        <mxCell id="-2Du17dGPulLsibZjKrI-55" value="Dátum" style="ellipse;whiteSpace=wrap;html=1;" parent="1" vertex="1">
          <mxGeometry x="460" y="160" width="70" height="40" as="geometry" />
        </mxCell>
        <mxCell id="-2Du17dGPulLsibZjKrI-56" value="" style="endArrow=none;html=1;rounded=0;exitX=0.5;exitY=1;exitDx=0;exitDy=0;entryX=0.5;entryY=0;entryDx=0;entryDy=0;" parent="1" source="-2Du17dGPulLsibZjKrI-54" target="-2Du17dGPulLsibZjKrI-34" edge="1">
          <mxGeometry width="50" height="50" relative="1" as="geometry">
            <mxPoint x="440" y="170" as="sourcePoint" />
            <mxPoint x="550" y="220" as="targetPoint" />
          </mxGeometry>
        </mxCell>
        <mxCell id="-2Du17dGPulLsibZjKrI-57" value="" style="endArrow=none;html=1;rounded=0;entryX=0.5;entryY=0;entryDx=0;entryDy=0;exitX=0.5;exitY=1;exitDx=0;exitDy=0;" parent="1" source="-2Du17dGPulLsibZjKrI-53" target="-2Du17dGPulLsibZjKrI-34" edge="1">
          <mxGeometry width="50" height="50" relative="1" as="geometry">
            <mxPoint x="440" y="170" as="sourcePoint" />
            <mxPoint x="465" y="219.99999999999994" as="targetPoint" />
          </mxGeometry>
        </mxCell>
        <mxCell id="-2Du17dGPulLsibZjKrI-58" value="" style="endArrow=none;html=1;rounded=0;exitX=0.5;exitY=1;exitDx=0;exitDy=0;entryX=0.5;entryY=0;entryDx=0;entryDy=0;" parent="1" source="-2Du17dGPulLsibZjKrI-55" target="-2Du17dGPulLsibZjKrI-34" edge="1">
          <mxGeometry width="50" height="50" relative="1" as="geometry">
            <mxPoint x="440" y="170" as="sourcePoint" />
            <mxPoint x="465" y="220" as="targetPoint" />
          </mxGeometry>
        </mxCell>
        <mxCell id="AIVpxSMUTkpqG0qADR1f-5" value="" style="endArrow=classic;html=1;rounded=0;exitX=0.5;exitY=1;exitDx=0;exitDy=0;" parent="1" edge="1">
          <mxGeometry width="50" height="50" relative="1" as="geometry">
            <mxPoint x="544.96" y="381" as="sourcePoint" />
            <mxPoint x="544.96" y="395" as="targetPoint" />
            <Array as="points" />
          </mxGeometry>
        </mxCell>
        <mxCell id="AIVpxSMUTkpqG0qADR1f-9" value="" style="endArrow=classic;html=1;rounded=0;exitX=0.498;exitY=-0.035;exitDx=0;exitDy=0;exitPerimeter=0;entryX=0.5;entryY=0.957;entryDx=0;entryDy=0;entryPerimeter=0;" parent="1" source="-2Du17dGPulLsibZjKrI-50" target="-2Du17dGPulLsibZjKrI-34" edge="1">
          <mxGeometry width="50" height="50" relative="1" as="geometry">
            <mxPoint x="555" y="386" as="sourcePoint" />
            <mxPoint x="545" y="270" as="targetPoint" />
            <Array as="points">
              <mxPoint x="545" y="290" />
            </Array>
          </mxGeometry>
        </mxCell>
        <mxCell id="AIVpxSMUTkpqG0qADR1f-10" value="" style="endArrow=classic;html=1;rounded=0;exitX=0.5;exitY=0;exitDx=0;exitDy=0;jumpSize=4;entryX=0.501;entryY=1.04;entryDx=0;entryDy=0;entryPerimeter=0;" parent="1" edge="1">
          <mxGeometry width="50" height="50" relative="1" as="geometry">
            <mxPoint x="544.94" y="310" as="sourcePoint" />
            <mxPoint x="545.0600000000001" y="272" as="targetPoint" />
            <Array as="points" />
          </mxGeometry>
        </mxCell>
        <mxCell id="AIVpxSMUTkpqG0qADR1f-13" value="ear" style="ellipse;whiteSpace=wrap;html=1;" parent="1" vertex="1">
          <mxGeometry x="660" y="160" width="70" height="40" as="geometry" />
        </mxCell>
        <mxCell id="AIVpxSMUTkpqG0qADR1f-15" value="" style="endArrow=none;html=1;rounded=0;exitX=0.5;exitY=1;exitDx=0;exitDy=0;entryX=0.5;entryY=0;entryDx=0;entryDy=0;" parent="1" source="AIVpxSMUTkpqG0qADR1f-13" target="-2Du17dGPulLsibZjKrI-34" edge="1">
          <mxGeometry width="50" height="50" relative="1" as="geometry">
            <mxPoint x="570" y="210" as="sourcePoint" />
            <mxPoint x="555" y="230" as="targetPoint" />
          </mxGeometry>
        </mxCell>
        <mxCell id="AIVpxSMUTkpqG0qADR1f-16" value="" style="endArrow=classic;html=1;rounded=0;exitX=0.5;exitY=0;exitDx=0;exitDy=0;jumpSize=4;entryX=0.501;entryY=1.04;entryDx=0;entryDy=0;entryPerimeter=0;" parent="1" target="-2Du17dGPulLsibZjKrI-50" edge="1">
          <mxGeometry width="50" height="50" relative="1" as="geometry">
            <mxPoint x="544.9000000000001" y="336.00000000000006" as="sourcePoint" />
            <mxPoint x="545" y="272" as="targetPoint" />
            <Array as="points" />
          </mxGeometry>
        </mxCell>
        <mxCell id="-2Du17dGPulLsibZjKrI-50" value="&lt;b&gt;R-T&lt;/b&gt;" style="rhombus;whiteSpace=wrap;html=1;fillColor=#f5f5f5;fontColor=#333333;strokeColor=#666666;" parent="1" vertex="1">
          <mxGeometry x="506.25" y="300" width="77.5" height="70" as="geometry" />
        </mxCell>
        <mxCell id="AIVpxSMUTkpqG0qADR1f-19" value="" style="edgeStyle=orthogonalEdgeStyle;rounded=0;orthogonalLoop=1;jettySize=auto;html=1;" parent="1" source="AIVpxSMUTkpqG0qADR1f-17" target="-2Du17dGPulLsibZjKrI-34" edge="1">
          <mxGeometry relative="1" as="geometry" />
        </mxCell>
        <mxCell id="AIVpxSMUTkpqG0qADR1f-21" value="" style="edgeStyle=orthogonalEdgeStyle;rounded=0;orthogonalLoop=1;jettySize=auto;html=1;" parent="1" source="AIVpxSMUTkpqG0qADR1f-17" target="AIVpxSMUTkpqG0qADR1f-20" edge="1">
          <mxGeometry relative="1" as="geometry" />
        </mxCell>
        <mxCell id="AIVpxSMUTkpqG0qADR1f-17" value="&lt;b&gt;R-V&lt;/b&gt;" style="rhombus;whiteSpace=wrap;html=1;fillColor=#f5f5f5;fontColor=#333333;strokeColor=#666666;" parent="1" vertex="1">
          <mxGeometry x="665" y="210" width="77.5" height="70" as="geometry" />
        </mxCell>
        <mxCell id="AIVpxSMUTkpqG0qADR1f-20" value="&lt;b&gt;Vevő&lt;/b&gt;" style="rounded=0;whiteSpace=wrap;html=1;fillColor=#f8cecc;strokeColor=#b85450;" parent="1" vertex="1">
          <mxGeometry x="805" y="220" width="120" height="50" as="geometry" />
        </mxCell>
        <mxCell id="AIVpxSMUTkpqG0qADR1f-22" value="" style="edgeStyle=orthogonalEdgeStyle;rounded=0;orthogonalLoop=1;jettySize=auto;html=1;" parent="1" edge="1">
          <mxGeometry relative="1" as="geometry">
            <mxPoint x="665" y="244.92" as="sourcePoint" />
            <mxPoint x="610" y="245" as="targetPoint" />
          </mxGeometry>
        </mxCell>
        <mxCell id="AIVpxSMUTkpqG0qADR1f-23" value="&lt;u&gt;V&lt;/u&gt;&lt;u&gt;kód&lt;/u&gt;" style="ellipse;whiteSpace=wrap;html=1;" parent="1" vertex="1">
          <mxGeometry x="735" y="300" width="70" height="40" as="geometry" />
        </mxCell>
        <mxCell id="AIVpxSMUTkpqG0qADR1f-24" value="" style="endArrow=none;html=1;rounded=0;exitX=0.5;exitY=1;exitDx=0;exitDy=0;entryX=0.5;entryY=0;entryDx=0;entryDy=0;" parent="1" source="AIVpxSMUTkpqG0qADR1f-20" target="AIVpxSMUTkpqG0qADR1f-23" edge="1">
          <mxGeometry width="50" height="50" relative="1" as="geometry">
            <mxPoint x="685" y="210" as="sourcePoint" />
            <mxPoint x="555" y="230" as="targetPoint" />
            <Array as="points" />
          </mxGeometry>
        </mxCell>
        <mxCell id="AIVpxSMUTkpqG0qADR1f-25" value="Név" style="ellipse;whiteSpace=wrap;html=1;" parent="1" vertex="1">
          <mxGeometry x="830" y="300" width="70" height="40" as="geometry" />
        </mxCell>
        <mxCell id="AIVpxSMUTkpqG0qADR1f-26" value="" style="endArrow=none;html=1;rounded=0;entryX=0.5;entryY=0;entryDx=0;entryDy=0;exitX=0.5;exitY=1;exitDx=0;exitDy=0;" parent="1" source="AIVpxSMUTkpqG0qADR1f-20" target="AIVpxSMUTkpqG0qADR1f-25" edge="1">
          <mxGeometry width="50" height="50" relative="1" as="geometry">
            <mxPoint x="860" y="270" as="sourcePoint" />
            <mxPoint x="780" y="310" as="targetPoint" />
            <Array as="points" />
          </mxGeometry>
        </mxCell>
        <mxCell id="AIVpxSMUTkpqG0qADR1f-27" value="Lakcím" style="ellipse;whiteSpace=wrap;html=1;" parent="1" vertex="1">
          <mxGeometry x="925" y="300" width="70" height="40" as="geometry" />
        </mxCell>
        <mxCell id="AIVpxSMUTkpqG0qADR1f-28" value="" style="endArrow=none;html=1;rounded=0;entryX=0.5;entryY=0;entryDx=0;entryDy=0;exitX=0.5;exitY=1;exitDx=0;exitDy=0;" parent="1" source="AIVpxSMUTkpqG0qADR1f-20" target="AIVpxSMUTkpqG0qADR1f-27" edge="1">
          <mxGeometry width="50" height="50" relative="1" as="geometry">
            <mxPoint x="875" y="280" as="sourcePoint" />
            <mxPoint x="875" y="310" as="targetPoint" />
            <Array as="points" />
          </mxGeometry>
        </mxCell>
        <mxCell id="AIVpxSMUTkpqG0qADR1f-29" value="" style="endArrow=none;html=1;rounded=0;exitX=1;exitY=0.5;exitDx=0;exitDy=0;entryX=0;entryY=0.5;entryDx=0;entryDy=0;" parent="1" source="AIVpxSMUTkpqG0qADR1f-27" target="AIVpxSMUTkpqG0qADR1f-32" edge="1">
          <mxGeometry width="50" height="50" relative="1" as="geometry">
            <mxPoint x="875" y="280" as="sourcePoint" />
            <mxPoint x="1000" y="270" as="targetPoint" />
            <Array as="points" />
          </mxGeometry>
        </mxCell>
        <mxCell id="AIVpxSMUTkpqG0qADR1f-30" value="" style="endArrow=none;html=1;rounded=0;exitX=1;exitY=0.5;exitDx=0;exitDy=0;entryX=0;entryY=0.5;entryDx=0;entryDy=0;" parent="1" source="AIVpxSMUTkpqG0qADR1f-27" target="AIVpxSMUTkpqG0qADR1f-33" edge="1">
          <mxGeometry width="50" height="50" relative="1" as="geometry">
            <mxPoint x="1000" y="320" as="sourcePoint" />
            <mxPoint x="1030" y="320" as="targetPoint" />
            <Array as="points" />
          </mxGeometry>
        </mxCell>
        <mxCell id="AIVpxSMUTkpqG0qADR1f-31" value="" style="endArrow=none;html=1;rounded=0;entryX=1;entryY=0.5;entryDx=0;entryDy=0;exitX=0.5;exitY=0;exitDx=0;exitDy=0;" parent="1" source="AIVpxSMUTkpqG0qADR1f-34" target="AIVpxSMUTkpqG0qADR1f-27" edge="1">
          <mxGeometry width="50" height="50" relative="1" as="geometry">
            <mxPoint x="1000" y="360" as="sourcePoint" />
            <mxPoint x="1000" y="320" as="targetPoint" />
            <Array as="points" />
          </mxGeometry>
        </mxCell>
        <mxCell id="AIVpxSMUTkpqG0qADR1f-32" value="Ország" style="ellipse;whiteSpace=wrap;html=1;" parent="1" vertex="1">
          <mxGeometry x="1090" y="180" width="70" height="40" as="geometry" />
        </mxCell>
        <mxCell id="AIVpxSMUTkpqG0qADR1f-33" value="Város" style="ellipse;whiteSpace=wrap;html=1;" parent="1" vertex="1">
          <mxGeometry x="1090" y="300" width="70" height="40" as="geometry" />
        </mxCell>
        <mxCell id="AIVpxSMUTkpqG0qADR1f-34" value="Ir.szám" style="ellipse;whiteSpace=wrap;html=1;" parent="1" vertex="1">
          <mxGeometry x="1090" y="240" width="70" height="40" as="geometry" />
        </mxCell>
        <mxCell id="AIVpxSMUTkpqG0qADR1f-35" value="Utca" style="ellipse;whiteSpace=wrap;html=1;" parent="1" vertex="1">
          <mxGeometry x="1089" y="360" width="70" height="40" as="geometry" />
        </mxCell>
        <mxCell id="AIVpxSMUTkpqG0qADR1f-36" value="Házszám" style="ellipse;whiteSpace=wrap;html=1;" parent="1" vertex="1">
          <mxGeometry x="1089" y="420" width="70" height="40" as="geometry" />
        </mxCell>
        <mxCell id="AIVpxSMUTkpqG0qADR1f-39" value="" style="endArrow=none;html=1;rounded=0;exitX=1;exitY=0.5;exitDx=0;exitDy=0;entryX=0;entryY=0.5;entryDx=0;entryDy=0;" parent="1" source="AIVpxSMUTkpqG0qADR1f-27" target="AIVpxSMUTkpqG0qADR1f-36" edge="1">
          <mxGeometry width="50" height="50" relative="1" as="geometry">
            <mxPoint x="1005" y="330" as="sourcePoint" />
            <mxPoint x="1099" y="320" as="targetPoint" />
            <Array as="points" />
          </mxGeometry>
        </mxCell>
        <mxCell id="AIVpxSMUTkpqG0qADR1f-41" value="" style="endArrow=none;html=1;rounded=0;exitX=1;exitY=0.5;exitDx=0;exitDy=0;entryX=0;entryY=0.5;entryDx=0;entryDy=0;" parent="1" source="AIVpxSMUTkpqG0qADR1f-27" target="AIVpxSMUTkpqG0qADR1f-35" edge="1">
          <mxGeometry width="50" height="50" relative="1" as="geometry">
            <mxPoint x="1005" y="330" as="sourcePoint" />
            <mxPoint x="1040" y="360" as="targetPoint" />
            <Array as="points" />
          </mxGeometry>
        </mxCell>
      </root>
    </mxGraphModel>
  </diagram>
</mxfile>
